<svg id="Layer_1" data-name="Layer 1" xmlns="http://www.w3.org/2000/svg" viewBox="0 0 512 512"><defs><style>.cls-1{fill:#5d73aa;}</style></defs><path class="cls-1" d="M352,256a625.29,625.29,0,0,1-3.3,64H163.3c-2.1-20.4-4.2-41.8-4.2-64s2.1-43.6,4.2-64H348.7A625.29,625.29,0,0,1,352,256Zm151.9-64a256.89,256.89,0,0,1,0,128H380.8c2.1-20.6,3.2-42.9,3.2-64a631.81,631.81,0,0,0-3.2-64Zm-10.5-32H376.7c-10-63.86-29.8-117.38-55.3-151.56A256.58,256.58,0,0,1,493.4,160Zm-149.1,0H167.7c6.1-36.4,15.5-68.62,27-94.65,10.5-23.61,22.2-40.74,33.5-51.54C239.4,3.18,248.7,0,256,0s16.6,3.18,27.8,13.81c11.3,10.8,23,27.93,33.5,51.54,11.5,26,20.9,58.25,27,94.65ZM18.61,160A256.52,256.52,0,0,1,190.6,8.44C165.1,42.62,145.3,96.14,135.3,160ZM131.2,192c-2.1,20.6-4.1,42-4.1,64,0,21.1,2,43.4,4.1,64H8.06a258.12,258.12,0,0,1,0-128Zm63.5,254.6c-11.5-26-20.9-58.2-27-94.6H344.3c-6.1,36.4-15.5,68.6-27,94.6-10.5,23.7-22.2,40.8-33.5,51.6-11.2,10.6-20.5,13.8-28.7,13.8-6.4,0-15.7-3.2-26.9-13.8-11.3-10.8-23-27.9-33.5-51.6Zm-4.1,57A256.6,256.6,0,0,1,18.61,352H135.3c10,63.9,29.8,117.4,55.3,151.6Zm130.8,0c25.5-34.2,45.3-87.7,55.3-151.6H493.4a256.66,256.66,0,0,1-172,151.6Z"/></svg>