<svg id="Layer_1" data-name="Layer 1" xmlns="http://www.w3.org/2000/svg" viewBox="0 0 640 512"><defs><style>.cls-1{fill:#5d73aa;}</style></defs><path class="cls-1" d="M224,256A128,128,0,1,0,96,128,128,128,0,0,0,224,256Zm50.7,48H173.3A173.29,173.29,0,0,0,0,477.3,34.66,34.66,0,0,0,34.66,512H413.3A34.65,34.65,0,0,0,448,477.3,173.31,173.31,0,0,0,274.7,304Zm204.4,16H405.25C451.2,357.7,480,414.1,480,477.3A66.07,66.07,0,0,1,470,512H608c17.7,0,32-14.4,32-32.9C640,391.6,568.4,320,479.1,320ZM432,256A112,112,0,1,0,365.28,54.51C376.8,76.63,384,101.4,384,128a158.66,158.66,0,0,1-31.59,94.71A111.64,111.64,0,0,0,432,256Z"/></svg>